<svg width="192" height="192" viewBox="0 0 192 192" fill="none" xmlns="http://www.w3.org/2000/svg">
  <!-- Fond avec dégradé -->
  <defs>
    <linearGradient id="bgGradient192" x1="0%" y1="0%" x2="100%" y2="100%">
      <stop offset="0%" style="stop-color:#1E3A5F"/>
      <stop offset="100%" style="stop-color:#0F2744"/>
    </linearGradient>
    <linearGradient id="shieldGradient192" x1="0%" y1="0%" x2="0%" y2="100%">
      <stop offset="0%" style="stop-color:#F97316"/>
      <stop offset="100%" style="stop-color:#EA580C"/>
    </linearGradient>
    <filter id="shadow192" x="-20%" y="-20%" width="140%" height="140%">
      <feDropShadow dx="0" dy="3" stdDeviation="6" flood-color="#000000" flood-opacity="0.3"/>
    </filter>
  </defs>

  <!-- Fond arrondi -->
  <rect width="192" height="192" rx="36" fill="url(#bgGradient192)"/>

  <!-- Cercle décoratif subtil -->
  <circle cx="96" cy="96" r="75" fill="none" stroke="rgba(255,255,255,0.05)" stroke-width="1"/>

  <!-- Bouclier principal -->
  <path
    d="M96 27
       C96 27 138 39 138 39
       C141 40 144 43 144 47
       L144 93
       C144 117 126 141 96 159
       C66 141 48 117 48 93
       L48 47
       C48 43 51 40 54 39
       C54 39 96 27 96 27Z"
    fill="url(#shieldGradient192)"
    filter="url(#shadow192)"
  />

  <!-- Bordure intérieure du bouclier -->
  <path
    d="M96 35
       C96 35 132 45 132 45
       C134 46 136 48 136 50
       L136 92
       C136 113 120 134 96 150
       C72 134 56 113 56 92
       L56 50
       C56 48 58 46 60 45
       C60 45 96 35 96 35Z"
    fill="none"
    stroke="rgba(255,255,255,0.3)"
    stroke-width="1"
  />

  <!-- Croix médicale / secours -->
  <rect x="84" y="57" width="24" height="66" rx="4" fill="white"/>
  <rect x="66" y="78" width="60" height="24" rx="4" fill="white"/>

  <!-- Effet brillance sur le bouclier -->
  <path
    d="M96 27
       C96 27 138 39 138 39
       C141 40 144 43 144 47
       L144 68
       C120 60 96 56 72 60
       L60 42
       C60 42 96 27 96 27Z"
    fill="rgba(255,255,255,0.15)"
  />
</svg>
